<?xml version="1.0" encoding="UTF-8" standalone="no"?>
<svg
   xmlns:dc="http://purl.org/dc/elements/1.1/"
   xmlns:cc="http://creativecommons.org/ns#"
   xmlns:rdf="http://www.w3.org/1999/02/22-rdf-syntax-ns#"
   xmlns:svg="http://www.w3.org/2000/svg"
   xmlns="http://www.w3.org/2000/svg"
   xmlns:sodipodi="http://sodipodi.sourceforge.net/DTD/sodipodi-0.dtd"
   xmlns:inkscape="http://www.inkscape.org/namespaces/inkscape"
   inkscape:version="1.0 (4035a4fb49, 2020-05-01)"
   sodipodi:docname="inverted_logo.svg"
   id="svg38"
   viewBox="0 0 185.51 25.541"
   version="1.1"
   height="25.541mm"
   width="185.51mm">
  <defs
     id="defs42" />
  <sodipodi:namedview
     inkscape:current-layer="g34"
     inkscape:window-maximized="1"
     inkscape:window-y="-6"
     inkscape:window-x="-6"
     inkscape:cy="48.266457"
     inkscape:cx="232.6928"
     inkscape:zoom="1.6330544"
     inkscape:pagecheckerboard="true"
     showgrid="false"
     id="namedview40"
     inkscape:window-height="938"
     inkscape:window-width="1500"
     inkscape:pageshadow="2"
     inkscape:pageopacity="0"
     guidetolerance="10"
     gridtolerance="10"
     objecttolerance="10"
     borderopacity="1"
     bordercolor="#666666"
     pagecolor="#ffffff" />
  <metadata
     id="metadata2">
    <rdf:RDF>
      <cc:Work
         rdf:about="">
        <dc:format>image/svg+xml</dc:format>
        <dc:type
           rdf:resource="http://purl.org/dc/dcmitype/StillImage" />
        <dc:title></dc:title>
      </cc:Work>
    </rdf:RDF>
  </metadata>
  <g
     id="g36"
     transform="translate(-53.145 -114.23)">
    <g
       id="g34"
       transform="translate(14.231 47.312)">
      <g
         style="fill:#f7f7ff;fill-opacity:1"
         id="g16"
         aria-label="roshen"
         stroke-width=".85982"
         fill="#fff">
        <path
           style="fill:#f7f7ff;fill-opacity:1"
           id="path4"
           d="m38.915 92.123v-16.793h4.2319l0.23511 2.4014q1.8305-2.7373 5.038-2.7373 1.0916 0 2.2503 0.33587l-0.67173 4.1815q-0.97401-0.31907-1.9144-0.31907-1.948 0-3.1403 1.4442-1.1923 1.4274-1.1923 4.0808v7.4058z" />
        <path
           style="fill:#f7f7ff;fill-opacity:1"
           id="path6"
           d="m51.375 83.727q0-2.519 1.1587-4.4838 1.1755-1.9816 3.1907-3.1068 2.032-1.1419 4.6182-1.1419t4.6014 1.1419q2.0152 1.1252 3.1739 3.1068 1.1755 1.9648 1.1755 4.4838 0 2.519-1.1755 4.5006-1.1587 1.9648-3.1739 3.1068-2.0152 1.1252-4.6014 1.1252t-4.6182-1.1252q-2.0152-1.1419-3.1907-3.1068-1.1587-1.9816-1.1587-4.5006zm4.7021 0q0 1.948 1.2091 3.2411 1.2091 1.2931 3.0564 1.2931t3.0564-1.2931q1.2091-1.2931 1.2091-3.2411t-1.2091-3.2411q-1.2091-1.2931-3.0564-1.2931t-3.0564 1.2931q-1.2091 1.2931-1.2091 3.2411z" />
        <path
           style="fill:#f7f7ff;fill-opacity:1"
           id="path8"
           d="m71.494 89.99 2.2839-3.6441q1.4442 0.95722 2.6533 1.5282 1.2259 0.55418 2.1831 0.55418 0.7389 0 1.1923-0.33587 0.45342-0.33587 0.45342-0.85646 0-0.7557-0.85646-1.2259-0.83966-0.47021-1.948-0.92363-1.1755-0.48701-2.3679-1.0916-1.1755-0.62135-1.9816-1.5954-0.78929-0.97401-0.78929-2.519 0-2.1328 1.6793-3.5098 1.6961-1.3771 4.7861-1.3771 1.5114 0 3.1739 0.38625 1.6793 0.36945 3.0564 1.2091l-2.1328 3.6777q-0.73891-0.48701-1.9312-0.85646-1.1755-0.38625-1.9984-0.38625-0.47021 0-1.0412 0.20152-0.55418 0.18473-0.55418 0.7389 0 0.62135 0.77249 1.0244 0.78928 0.40304 1.8641 0.82287 1.1587 0.45342 2.3846 1.0748 1.2259 0.60456 2.0656 1.629 0.85646 1.0076 0.85646 2.6533 0 1.6457-0.90684 2.8381-0.90684 1.1923-2.4182 1.8305-1.5114 0.62135-3.3419 0.62135-1.7297 0-3.5938-0.60456-1.8473-0.60456-3.5434-1.8641z" />
        <path
           style="fill:#f7f7ff;fill-opacity:1"
           id="path10"
           d="m88.69 92.123v-25.19h4.8365v10.026q1.9984-1.9648 4.9708-1.9648 6.4822 0 6.4822 8.1615v8.9676h-4.8365v-9.0012q0-1.8976-0.80608-2.9052-0.78929-1.0244-2.2671-1.0244-1.5786 0-2.5694 1.1084-0.97401 1.0916-0.97401 2.8381v8.9844z" />
        <path
           style="fill:#f7f7ff;fill-opacity:1"
           id="path12"
           d="m112.42 85.171q0.45342 1.3938 1.6625 2.2671 1.2259 0.87325 2.8549 0.87325 1.7465 0 2.8884-0.55418 1.1587-0.57097 2.0992-1.461l2.922 3.493q-1.948 1.5282-3.8625 2.0992-1.8976 0.57097-3.6442 0.57097-2.7877 0-4.9204-1.1252-2.1328-1.1419-3.3419-3.1236-1.2091-1.9984-1.2091-4.5342 0-2.5022 1.1587-4.4502 1.1587-1.9648 3.1572-3.09 2.0152-1.1419 4.5678-1.1419 2.5358 0 4.5006 1.1252 1.9816 1.1252 3.1236 3.09 1.1419 1.9648 1.1419 4.5006v1.461zm8.128-2.6869q-0.35266-1.4778-1.4442-2.3846-1.0916-0.90684-2.6198-0.90684-1.545 0-2.6869 0.92363-1.1252 0.92363-1.4778 2.3679z" />
        <path
           style="fill:#f7f7ff;fill-opacity:1"
           id="path14"
           d="m128.73 92.123v-16.793h4.2319l0.20152 2.0488q0.9908-1.1419 2.3678-1.7633 1.3938-0.62135 3.0564-0.62135 2.9388 0 4.6853 1.948 1.7465 1.9312 1.7465 5.3907v9.7905h-4.8533v-8.8501q0-4.0808-3.0564-4.0808-1.5786 0-2.5694 1.1587-0.97402 1.1587-0.97402 3.2579v8.5142z" />
      </g>
      <g
         style="fill:#f7f7ff;fill-opacity:1"
         id="g26"
         aria-label="nair"
         stroke-width=".85982"
         fill="#fff">
        <path
           style="fill:#f7f7ff;fill-opacity:1"
           id="path18"
           d="m164.7 92.108v-16.793h4.2319l0.20152 2.0488q0.9908-1.1419 2.3678-1.7633 1.3938-0.62135 3.0564-0.62135 2.9388 0 4.6853 1.948 1.7465 1.9312 1.7465 5.3907v9.7905h-4.8533v-8.8501q0-4.0808-3.0564-4.0808-1.5786 0-2.5694 1.1587-0.97401 1.1587-0.97401 3.2579v8.5142z" />
        <path
           style="fill:#f7f7ff;fill-opacity:1"
           id="path20"
           d="m184.52 87.49q0-1.6793 0.95722-3.006 0.97401-1.3267 2.6701-2.0992 1.6961-0.77249 3.8792-0.77249 0.68853 0 1.4442 0.08397 0.77249 0.08397 1.545 0.21831-0.55418-2.7373-3.98-2.7373-2.032 0-4.0808 1.5282l-1.6625-4.0808q1.7465-0.83966 3.4426-1.2427 1.6961-0.40304 3.2243-0.40304 2.435 0 4.2151 0.92363 1.7969 0.90684 2.7877 2.5862 0.9908 1.6625 0.9908 3.9128v9.7065h-4.064l-0.31907-1.7969q-0.94043 0.99081-2.3007 1.5618-1.3435 0.57097-2.9556 0.57097-2.5526 0-4.1815-1.3771-1.6122-1.3771-1.6122-3.577zm4.8365-1.1084q0 0.83966 0.63815 1.3603 0.65494 0.5038 1.7129 0.5038 1.4442 0 2.4182-0.87325 0.99081-0.87325 0.99081-2.1495v-0.33587q-0.62135-0.20152-1.3435-0.31907-0.70531-0.11755-1.3938-0.11755-1.4274 0-2.2335 0.5038-0.78929 0.5038-0.78929 1.4274z" />
        <path
           style="fill:#f7f7ff;fill-opacity:1"
           id="path22"
           d="m203.73 92.111v-16.793h4.8365v16.793z" />
        <path
           style="fill:#f7f7ff;fill-opacity:1"
           id="path24"
           d="m212.67 92.108v-16.793h4.2319l0.23511 2.4014q1.8305-2.7373 5.038-2.7373 1.0916 0 2.2503 0.33587l-0.67173 4.1815q-0.97401-0.31907-1.9144-0.31907-1.948 0-3.1404 1.4442-1.1923 1.4274-1.1923 4.0808v7.4058z" />
      </g>
      <path
         id="path28"
         fill="#ff5666"
         d="m203.46 69.689c0-0.80608 0.2463-1.4554 0.7389-1.948 0.49261-0.4926 1.142-0.7389 1.948-0.7389 0.80607 0 1.4554 0.2463 1.948 0.7389 0.49261 0.4926 0.73891 1.1419 0.73891 1.948s-0.2463 1.4554-0.73891 1.948c-0.49261 0.4926-1.142 0.73891-1.948 0.73891-0.80608 0-1.4554-0.2463-1.948-0.73891-0.4926-0.4926-0.7389-1.1419-0.7389-1.948z" />
      <g
         id="g32"
         aria-label="/"
         fill="#fff">
        <path
           id="path30"
           stroke-width=".26458"
           fill="#227dfc"
           d="m164.73 66.918-11 25.2h-4.3663l10.95-25.2z" />
      </g>
    </g>
  </g>
</svg>
